<svg width="32" height="36" viewBox="0 0 32 36" fill="none" xmlns="http://www.w3.org/2000/svg">
<g opacity="0.6">
<path d="M22.5 18C22.5 19.5 19.59 22.5 16 22.5C12.41 22.5 9.5 19.5 9.5 18C9.5 16.5 12.41 13.5 16 13.5C19.59 13.5 22.5 16.5 22.5 18Z" stroke="black" stroke-linejoin="round"/>
<path d="M18.5 18C18.5 18.663 18.2366 19.2989 17.7678 19.7678C17.2989 20.2366 16.663 20.5 16 20.5C15.337 20.5 14.7011 20.2366 14.2322 19.7678C13.7634 19.2989 13.5 18.663 13.5 18C13.5 17.337 13.7634 16.7011 14.2322 16.2322C14.7011 15.7634 15.337 15.5 16 15.5C16.663 15.5 17.2989 15.7634 17.7678 16.2322C18.2366 16.7011 18.5 17.337 18.5 18Z" stroke="black" stroke-linejoin="round"/>
</g>
</svg>
