<svg width="32" height="33" viewBox="0 0 32 33" fill="none" xmlns="http://www.w3.org/2000/svg">
<circle cx="16" cy="16.5" r="16" fill="#FFFBA1"/>
<path d="M13.2233 24.8366C13.6529 24.8366 14.0012 24.4883 14.0012 24.0587C14.0012 23.6291 13.6529 23.2808 13.2233 23.2808C12.7936 23.2808 12.4453 23.6291 12.4453 24.0587C12.4453 24.4883 12.7936 24.8366 13.2233 24.8366Z" stroke="black" stroke-width="1.3" stroke-linecap="round" stroke-linejoin="round"/>
<path d="M21.7809 24.8366C22.2105 24.8366 22.5588 24.4883 22.5588 24.0587C22.5588 23.6291 22.2105 23.2808 21.7809 23.2808C21.3512 23.2808 21.0029 23.6291 21.0029 24.0587C21.0029 24.4883 21.3512 24.8366 21.7809 24.8366Z" stroke="black" stroke-width="1.3" stroke-linecap="round" stroke-linejoin="round"/>
<path d="M7 8.5H10.1118L12.1966 18.9166C12.2678 19.2748 12.4626 19.5965 12.7471 19.8255C13.0315 20.0545 13.3874 20.1761 13.7525 20.1691H21.3141C21.6792 20.1761 22.0351 20.0545 22.3195 19.8255C22.604 19.5965 22.7988 19.2748 22.87 18.9166L24.1147 12.3897H10.8897" stroke="black" stroke-width="1.3" stroke-linecap="round" stroke-linejoin="round"/>
</svg>
