<svg width="48" height="48" viewBox="0 0 48 48" fill="none" xmlns="http://www.w3.org/2000/svg">
<rect width="48" height="48" rx="24" fill="#FFCC00"/>
<path d="M33 23.9979C33.003 25.7847 32.4715 27.5315 31.474 29.0139C30.6514 30.2409 29.5391 31.2462 28.2355 31.9411C26.9319 32.636 25.4772 32.9989 24 32.9979C22.5228 32.9989 21.0681 32.636 19.7645 31.9411C18.4609 31.2462 17.3486 30.2409 16.526 29.0139C15.7427 27.8463 15.2439 26.5115 15.0695 25.1164C14.8951 23.7212 15.05 22.3047 15.5217 20.9802C15.9935 19.6557 16.769 18.4602 17.7861 17.4895C18.8031 16.5187 20.0335 15.7998 21.3785 15.3903C22.7235 14.9807 24.1458 14.892 25.5312 15.1312C26.9167 15.3704 28.2269 15.9309 29.3567 16.7677C30.4865 17.6046 31.4046 18.6944 32.0373 19.95C32.67 21.2056 32.9997 22.5919 33 23.9979Z" stroke="black"/>
<path d="M25.4999 20.9978C25.4999 21.3956 25.3419 21.7772 25.0605 22.0585C24.7792 22.3398 24.3977 22.4978 23.9999 22.4978V23.4978C24.3282 23.4978 24.6533 23.4331 24.9566 23.3075C25.2599 23.1819 25.5355 22.9977 25.7677 22.7656C25.9998 22.5334 26.1839 22.2578 26.3096 21.9545C26.4352 21.6512 26.4999 21.3261 26.4999 20.9978H25.4999ZM23.9999 22.4978C23.6021 22.4978 23.2205 22.3398 22.9392 22.0585C22.6579 21.7772 22.4999 21.3956 22.4999 20.9978H21.4999C21.4999 21.3261 21.5646 21.6512 21.6902 21.9545C21.8158 22.2578 22 22.5334 22.2321 22.7656C22.701 23.2344 23.3368 23.4978 23.9999 23.4978V22.4978ZM22.4999 20.9978C22.4999 20.6 22.6579 20.2184 22.9392 19.9371C23.2205 19.6558 23.6021 19.4978 23.9999 19.4978V18.4978C23.3368 18.4978 22.701 18.7612 22.2321 19.23C21.7633 19.6989 21.4999 20.3348 21.4999 20.9978H22.4999ZM23.9999 19.4978C24.3977 19.4978 24.7792 19.6558 25.0605 19.9371C25.3419 20.2184 25.4999 20.6 25.4999 20.9978H26.4999C26.4999 20.3348 26.2365 19.6989 25.7677 19.23C25.2988 18.7612 24.6629 18.4978 23.9999 18.4978V19.4978ZM17.1659 29.8538L16.6859 29.7118L16.6089 29.9728L16.7859 30.1798L17.1659 29.8538ZM30.8339 29.8538L31.2139 30.1798L31.3909 29.9728L31.3129 29.7118L30.8339 29.8538ZM20.9999 27.4978H26.9999V26.4978H20.9999V27.4978ZM20.9999 26.4978C20.0308 26.498 19.0877 26.8108 18.3106 27.3899C17.5336 27.9689 16.9631 28.7832 16.6859 29.7118L17.6449 29.9968C17.8607 29.2747 18.3038 28.6415 18.9082 28.1913C19.5127 27.7411 20.2462 27.4979 20.9999 27.4978V26.4978ZM23.9999 32.4978C22.7732 32.4991 21.5607 32.2342 20.4463 31.7215C19.3319 31.2087 18.342 30.4603 17.5449 29.5278L16.7859 30.1798C17.6769 31.2216 18.7833 32.0577 20.0288 32.6305C21.2742 33.2033 22.629 33.4992 23.9999 33.4978V32.4978ZM26.9999 27.4978C27.7537 27.4979 28.4873 27.7413 29.0918 28.1917C29.6962 28.6421 30.1392 29.2755 30.3549 29.9978L31.3129 29.7118C31.0356 28.7832 30.4662 27.9689 29.6891 27.3899C28.9121 26.8108 27.969 26.498 26.9999 26.4978V27.4978ZM30.4549 29.5278C29.6578 30.4603 28.6679 31.2087 27.5535 31.7215C26.439 32.2342 25.2266 32.4991 23.9999 32.4978V33.4978C25.3707 33.4992 26.7256 33.2033 27.971 32.6305C29.2165 32.0577 30.3228 31.2216 31.2139 30.1798L30.4549 29.5278Z" fill="black"/>
</svg>
