<svg width="32" height="33" viewBox="0 0 32 33" fill="none" xmlns="http://www.w3.org/2000/svg">
<circle cx="16" cy="16.5" r="16" fill="#C5E6FF"/>
<path d="M23.0156 24.5367V22.7463C23.0156 21.7966 22.6384 20.8859 21.9668 20.2143C21.2953 19.5428 20.3845 19.1655 19.4348 19.1655H12.2732C11.3235 19.1655 10.4127 19.5428 9.74118 20.2143C9.06965 20.8859 8.69238 21.7966 8.69238 22.7463V24.5367" stroke="black" stroke-width="1.3" stroke-linecap="round" stroke-linejoin="round"/>
<path d="M15.8542 15.5847C17.8319 15.5847 19.4351 13.9815 19.4351 12.0039C19.4351 10.0263 17.8319 8.4231 15.8542 8.4231C13.8766 8.4231 12.2734 10.0263 12.2734 12.0039C12.2734 13.9815 13.8766 15.5847 15.8542 15.5847Z" stroke="black" stroke-width="1.3" stroke-linecap="round" stroke-linejoin="round"/>
</svg>
