<svg width="32" height="33" viewBox="0 0 32 33" fill="none" xmlns="http://www.w3.org/2000/svg">
<circle cx="16" cy="16.5" r="16" fill="#C3FFFB"/>
<g clip-path="url(#clip0_1824_68479)">
<path d="M19.6781 9.15283H21.4831C21.9619 9.15283 22.421 9.34301 22.7595 9.68152C23.098 10.02 23.2882 10.4792 23.2882 10.9579V23.5934C23.2882 24.0721 23.098 24.5312 22.7595 24.8698C22.421 25.2083 21.9619 25.3984 21.4831 25.3984H10.6527C10.174 25.3984 9.71486 25.2083 9.37635 24.8698C9.03783 24.5312 8.84766 24.0721 8.84766 23.5934V10.9579C8.84766 10.4792 9.03783 10.02 9.37635 9.68152C9.71486 9.34301 10.174 9.15283 10.6527 9.15283H12.4578" stroke="black" stroke-width="1.3" stroke-linecap="round" stroke-linejoin="round"/>
<path d="M18.7757 7.34766H13.3605C12.8621 7.34766 12.458 7.75173 12.458 8.25019V10.0553C12.458 10.5537 12.8621 10.9578 13.3605 10.9578H18.7757C19.2742 10.9578 19.6783 10.5537 19.6783 10.0553V8.25019C19.6783 7.75173 19.2742 7.34766 18.7757 7.34766Z" stroke="black" stroke-width="1.3" stroke-linecap="round" stroke-linejoin="round"/>
</g>
<defs>
<clipPath id="clip0_1824_68479">
<rect width="20" height="20" fill="white" transform="translate(6 6.5)"/>
</clipPath>
</defs>
</svg>
