<svg width="8" height="12" viewBox="0 0 8 12" fill="none" xmlns="http://www.w3.org/2000/svg">
<path d="M7.74219 5.9917C7.74219 6.27393 7.62874 6.52848 7.40186 6.75537L2.42969 11.6777C2.24154 11.8604 2.01742 11.9517 1.75732 11.9517C1.48617 11.9517 1.25928 11.8604 1.07666 11.6777C0.888509 11.4896 0.794434 11.2599 0.794434 10.9888C0.794434 10.7287 0.894043 10.4963 1.09326 10.2915L5.7749 5.67627V6.30713L1.09326 1.7002C0.894043 1.49544 0.794434 1.26302 0.794434 1.00293C0.794434 0.737305 0.888509 0.513184 1.07666 0.330566C1.25928 0.142415 1.48617 0.0483398 1.75732 0.0483398C2.02295 0.0483398 2.24707 0.139648 2.42969 0.322266L7.40186 5.23633C7.62321 5.45215 7.73665 5.70394 7.74219 5.9917Z" fill="black" fill-opacity="0.8"/>
</svg>
